# xmcd
#
# Track frame offsets:
#      150
#      15097
#      28289
#      41398
#      57684
#      73355
#      85266
#      102694
#      113099
#      124507
#      138661
#      150432
#      161061
#      174726
#      187236
#      200805
#      214916
#      227231
#      237665
#      249881
#      258184
#      267949
# 
# Disc length: 3707 seconds
#
# Revision: 2
# Processed by: cddbd v1.4PL0 Copyright (c) Steve Scherf et al.
#
# Submitted via: FreeRIP 1.20
#
DISCID=4a0e7916
DTITLE=Sons of the Pioneers - Their Best
DYEAR=1900
DGENRE=Western
TTITLE0=Sons of the Pioneers - Ghost Riders In The Sky
TTITLE1=Sons of the Pioneers - Cool Water
TTITLE2=Sons of the Pioneers - Have I Told You Lately That I Love You
TTITLE3=Sons of the Pioneers - High Noon
TTITLE4=Sons of the Pioneers - Home On The Range
TTITLE5=Sons of the Pioneers - I Still Do
TTITLE6=Sons of the Pioneers - Little Joe, the Wrangler
TTITLE7=Sons of the Pioneers - My Best To You
TTITLE8=Sons of the Pioneers - Red River Valley
TTITLE9=Sons of the Pioneers - Room Full of Roses
TTITLE10=Sons of the Pioneers - San Antonio Rose
TTITLE11=Sons of the Pioneers - Somebody Bigger Than You and I
TTITLE12=Sons of the Pioneers - The Everlasting Hills Of Oklahoma
TTITLE13=Sons of the Pioneers - The Last Round-Up
TTITLE14=Sons of the Pioneers - The Streets of Laredo
TTITLE15=Sons of the Pioneers - Chant Of The Wanderer
TTITLE16=Sons of the Pioneers - There's A Long Long Trail
TTITLE17=Sons of the Pioneers - Ballad of Jesse James
TTITLE18=Sons of the Pioneers - Tumbling Tumble Weeds
TTITLE19=Sons of the Pioneers - Wait For The Wagon (1934)
TTITLE20=Sons of the Pioneers - Whoopee Ty Yi Yo
TTITLE21=Sons of the Pioneers - Don't Fence Me In
EXTD=
EXTT0=
EXTT1=
EXTT2=
EXTT3=
EXTT4=
EXTT5=
EXTT6=
EXTT7=
EXTT8=
EXTT9=
EXTT10=
EXTT11=
EXTT12=
EXTT13=
EXTT14=
EXTT15=
EXTT16=
EXTT17=
EXTT18=
EXTT19=
EXTT20=
EXTT21=
PLAYORDER=
